PathFileType	4	(X/Y/Z)	W16_1_OpenSim.trc																																																																																																																						
DataRate	CameraRate	NumFrames	NumMarkers	Units	OrigDataRate	OrigDataStartFrame	OrigNumFrames																																																																																																																		
100	100	7	40	mm	100	1876	3000																																																																																																																		
Frame#	Time	R.ASIS			R.PSIS			S2			L.PSIS			L.ASIS			R.TH1			R.TH2			R.TH3			R.MKnee			R.Knee			R.SH1			R.SH2			R.SH3			R.SH4			R.Ankle			R.MAnkle			R.Heel			R.MT5			R.MT1			L.TH1			L.TH2			L.TH3			L.TH4			L.MKnee			L.Knee			L.SH1			L.SH2			L.SH3			L.Ankle			L.MAnkle			L.Heel			L.MT5			L.MT1			R.Acr			L.Acr			C7			T10			Clav			Sternum			R.Back		
		X1	Y1	Z1	X2	Y2	Z2	X3	Y3	Z3	X4	Y4	Z4	X5	Y5	Z5	X6	Y6	Z6	X7	Y7	Z7	X8	Y8	Z8	X9	Y9	Z9	X10	Y10	Z10	X11	Y11	Z11	X12	Y12	Z12	X13	Y13	Z13	X14	Y14	Z14	X15	Y15	Z15	X16	Y16	Z16	X17	Y17	Z17	X18	Y18	Z18	X19	Y19	Z19	X20	Y20	Z20	X21	Y21	Z21	X22	Y22	Z22	X23	Y23	Z23	X24	Y24	Z24	X25	Y25	Z25	X26	Y26	Z26	X27	Y27	Z27	X28	Y28	Z28	X29	Y29	Z29	X30	Y30	Z30	X31	Y31	Z31	X32	Y32	Z32	X33	Y33	Z33	X34	Y34	Z34	X35	Y35	Z35	X36	Y36	Z36	X37	Y37	Z37	X38	Y38	Z38	X39	Y39	Z39	X40	Y40	Z40
1876	18.75	933.1265	1031.2296	-399.8982	743.2128	1040.7667	-501.3494	735.5945	1034.412	-546.3726	740.6349	1038.3998	-596.2971	918.6461	1026.681	-694.156	855.0815	703.4058	-389.1614	776.2185	717.862	-373.9391	753.7789	611.554	-393.7534	744.376	491.9174	-526.7708	744.7835	490.6283	-410.5326	694.3498	328.6193	-413.3468	657.2662	224.7906	-437.0578	616.5216	355.322	-399.8739	583.3282	247.4761	-416.4696	540.7584	94.048	-434.1773	583.3773	103.9014	-527.5103	476.7801	63.375	-492.9357	645.1494	37.9305	-398.4881	695.708	37.9851	-486.087	990.6253	761.1313	-708.9883	1025.8965	658.5868	-700.8666	914.3211	729.8942	-725.3084	952.0165	627.9378	-710.2141	1055.8767	506.2022	-580.9703	1054.7996	516.135	-692.7256	1101.6643	397.5357	-717.392	1023.8904	370.944	-712.9612	1062.1543	268.1831	-706.9621	1195.6039	92.5324	-711.5564	1219.1794	114.8525	-615.6114	1153.8784	29.0677	-656.0654	1315.0821	94.3954	-729.8208	1345.1119	124.4571	-630.9412	908.9712	1440.6367	-400.851	849.2373	1418.8885	-713.9169	831.1079	1470.2015	-553.2903	783.6648	1145.8927	-539.2886	963.2703	1368.5903	-567.1365	985.0251	1224.625	-554.9106	759.2202	1376.6888	-452.718
1877	18.76	933.1251	1028.2285	-400.4584	743.9328	1037.8629	-503.5444	736.4208	1031.5117	-548.5784	742.3062	1035.4094	-598.5378	920.5771	1023.7997	-694.9932	853.3022	701.0793	-389.553	774.4362	716.2463	-375.0508	751.165	610.1103	-394.5055	741.4878	490.1033	-527.0982	740.9892	489.1664	-410.8796	686.4374	328.2604	-413.2987	646.5622	225.4293	-436.6623	609.2557	357.1515	-400.0978	573.1653	250.2348	-416.3776	526.5878	97.1618	-433.4911	569.6044	106.7009	-526.6605	461.7101	68.6061	-492.3244	629.7247	37.865	-398.144	679.9996	37.6253	-485.8984	992.5963	757.7498	-709.1038	1027.2827	655.0385	-700.1936	916.2616	726.7776	-726.1177	953.3319	624.7092	-710.2813	1055.1332	503.3658	-580.0496	1055.1326	513.0793	-691.697	1102.9117	394.8546	-716.3058	1025.4999	366.9809	-710.944	1065.6189	264.8654	-704.1783	1202.1897	91.7799	-708.317	1226.2611	115.0098	-612.5984	1161.9063	28.1168	-652.0405	1321.4177	95.6398	-727.8683	1351.8595	126.7116	-629.3875	909.3271	1438.0703	-402.4639	850.1528	1416.0533	-715.6929	831.554	1467.4447	-555.0008	784.4231	1143.0261	-540.6155	963.8391	1365.8594	-568.5336	985.7712	1221.9089	-556.0358	759.5892	1373.9666	-454.3375
1878	18.77	933.3866	1025.4058	-401.1552	744.8486	1035.0764	-505.8338	737.5273	1028.7758	-550.8948	744.1177	1032.6584	-600.8789	922.6783	1021.3698	-696.0378	852.2516	698.8449	-390.1365	773.3021	714.5606	-376.3814	749.4944	608.5096	-395.3879	739.8588	488.0415	-527.4419	738.437	487.5904	-411.231	679.4405	328.0248	-413.139	636.5776	226.3498	-436.0465	603.0453	359.2704	-400.3288	563.7917	253.4874	-416.1522	512.9271	100.7859	-432.5416	556.3919	109.9627	-525.5169	447.1467	74.7844	-491.5019	614.4353	37.7553	-397.7211	664.3076	37.155	-485.6764	995.2816	755.1914	-709.2755	1029.5685	652.3969	-699.4896	918.9486	724.3511	-726.7074	955.5696	622.2558	-710.0722	1055.7462	501.6164	-579.0727	1056.3701	510.7541	-690.5284	1104.0566	392.1596	-714.7732	1026.7747	363.952	-708.66	1067.4915	262.0993	-701.1412	1204.5689	90.5535	-704.9541	1229.5095	114.0472	-609.3158	1164.6896	27.5398	-647.9363	1323.3249	94.3425	-725.7498	1354.7529	125.5596	-627.6568	909.6389	1435.7312	-404.1142	851.2429	1413.4558	-717.5617	832.0092	1464.8917	-556.8137	785.3831	1140.3391	-542.0203	964.4751	1363.394	-570.0001	986.6812	1219.4757	-557.2964	759.9625	1371.4033	-456.1125
1879	18.78	933.9778	1022.8079	-402.0366	745.9983	1032.4973	-508.1484	738.917	1026.2969	-553.2503	746.0555	1030.2521	-603.246	924.9183	1019.4745	-697.2913	852.0186	696.7087	-390.9434	772.9091	712.7734	-377.9207	748.8944	606.7114	-396.3866	739.5944	485.7018	-527.7777	737.2704	485.8819	-411.5602	673.4916	327.9515	-412.817	627.4718	227.5897	-435.179	598.0493	361.6989	-400.5676	555.3665	257.2798	-415.7872	499.9551	104.9851	-431.3175	543.912	113.6833	-524.05	433.3401	82.0303	-490.4635	599.2997	37.6226	-397.2137	648.6327	36.5763	-485.4305	998.5087	753.4241	-709.5666	1032.5682	650.6284	-698.834	922.1882	722.6019	-727.0768	958.5328	620.558	-709.6006	1057.644	500.9356	-578.0788	1058.4562	509.1682	-689.2518	1105.2911	389.5974	-712.8399	1027.9009	361.915	-706.3166	1068.042	259.9407	-698.1143	1203.2367	88.9664	-701.7233	1229.2179	111.964	-605.9474	1162.602	27.3741	-644.1835	1321.3634	90.6424	-723.4622	1354.1704	120.9942	-625.656	909.9019	1433.6565	-405.7882	852.4749	1411.1453	-719.5093	832.4734	1462.6013	-558.718	786.5424	1137.8887	-543.4852	965.1765	1361.256	-571.5392	987.7631	1217.3949	-558.7038	760.3351	1369.0367	-458.0379
1880	18.79	934.9464	1020.4832	-403.1506	747.3953	1030.2131	-510.4218	740.5674	1024.1627	-555.5759	748.108	1028.2745	-605.5694	927.2559	1018.1718	-698.7385	852.693	694.6671	-391.9896	773.3597	710.8401	-379.6407	749.4995	604.6667	-397.4688	740.818	483.0525	-528.074	737.6431	484.0155	-411.8331	668.7596	328.0635	-412.3004	619.4407	229.1739	-434.0469	594.4535	364.4422	-400.8162	548.0888	261.636	-415.2866	487.8884	109.831	-429.8297	532.3645	117.8455	-522.2531	420.5927	90.4615	-489.2178	584.3526	37.5239	-396.6242	632.9908	35.9162	-485.1775	1002.077	752.3862	-710.0606	1036.0537	649.6576	-698.3257	925.7524	721.4893	-727.2831	961.9821	619.5673	-708.9408	1060.5602	501.2017	-577.1299	1061.2603	508.3016	-687.9512	1106.7534	387.3347	-710.624	1029.0433	360.8929	-704.1821	1067.602	258.4619	-695.4042	1198.8804	87.1985	-698.8605	1225.8446	108.9799	-602.7048	1156.3613	27.6837	-641.1262	1316.2463	84.9522	-721.0154	1350.5957	113.4647	-623.3378	910.1199	1431.8825	-407.4741	853.8063	1409.1764	-721.5249	832.9514	1460.6359	-560.7021	787.8765	1135.7353	-544.9847	965.9358	1359.5083	-573.1526	989.0089	1215.7327	-560.2607	760.7034	1366.9132	-460.1057
1881	18.8	936.3076	1018.4821	-404.5396	749.0222	1028.2959	-512.5956	742.4267	1022.446	-557.8094	750.2432	1026.7888	-607.7878	929.6415	1017.4975	-700.3515	854.3546	692.7123	-393.2716	774.7587	708.7125	-381.5007	751.4401	602.3271	-398.5894	743.6685	480.0651	-528.2912	739.7058	481.9606	-412.0105	665.4485	328.3614	-411.5851	612.712	231.1142	-432.6561	592.4657	367.484	-401.0747	542.1982	266.5493	-414.6581	476.9817	115.397	-428.1126	521.9647	122.4291	-520.1519	409.2461	100.1852	-487.7852	569.6558	37.5682	-395.9658	617.4246	35.2365	-484.9368	1005.7879	752.0158	-710.8353	1039.7932	649.4017	-698.0713	929.4234	720.9735	-727.4349	965.6785	619.2351	-708.2297	1064.0898	502.2217	-576.2963	1064.6221	508.1218	-686.7432	1108.5203	385.5279	-708.3016	1030.3319	360.8724	-702.5507	1066.5164	257.7344	-693.3282	1192.2393	85.4252	-696.5483	1219.9396	105.47	-599.802	1146.9104	28.4839	-638.9605	1308.7131	77.8716	-718.4714	1344.5413	103.8091	-620.7518	910.3069	1430.4439	-409.1613	855.1919	1407.6067	-723.5964	833.4518	1459.0564	-562.749	789.3347	1133.942	-546.4854	966.7405	1358.208	-574.8361	990.3901	1214.5454	-561.9593	761.0649	1365.0891	-462.2997
1882	18.81	938.0323	1016.8532	-406.2329	750.8248	1026.7892	-514.6215	744.4145	1021.1904	-559.8965	752.3995	1025.8308	-609.8495	932.0159	1017.467	-702.0948	857.0623	690.8387	-394.7638	777.1989	706.35	-383.4524	754.8249	599.6553	-399.6941	748.2859	476.7209	-528.3864	743.5888	479.6864	-412.054	663.7787	328.8267	-410.691	607.5333	233.4067	-431.0365	592.3044	370.7805	-401.3354	537.9725	271.9668	-413.9167	467.5237	121.7553	-426.2243	512.9288	127.4255	-517.8077	399.6596	111.286	-486.1955	555.3075	37.9346	-395.2604	602.0168	34.6409	-484.7184	1009.4678	752.2648	-711.9372	1043.5832	649.7922	-698.1705	933.028	721.0311	-727.6771	969.4202	619.5253	-707.6597	1067.7898	503.7759	-575.6438	1068.3828	508.5822	-685.7482	1110.5884	384.2839	-706.0731	1031.8319	361.7958	-701.6975	1065.0671	257.7983	-692.1689	1183.9421	83.7835	-694.891	1212.0441	101.8577	-597.4167	1135.2191	29.708	-637.7169	1299.3981	70.0814	-715.9692	1336.4652	93.0723	-618.0634	910.4823	1429.374	-410.84	856.5902	1406.4902	-725.7058	833.9855	1457.9117	-564.8338	790.8428	1132.568	-547.9521	967.5725	1357.3962	-576.5756	991.8602	1213.8715	-563.7789	761.4205	1363.6267	-464.589
